<?xml version="1.0" encoding="UTF-8"?>
<svg id="Calque_1" data-name="Calque 1" xmlns="http://www.w3.org/2000/svg" viewBox="0 0 400 400">
  <defs>
    <style>
      .cls-1 {
        fill: #fff;
      }
    </style>
  </defs>
  <path class="cls-1" d="M219.6,108.64c-58.11,0-105.22,47.11-105.22,105.22,0,32.73,14.94,61.96,38.37,81.26-2.11,9.85-6.07,18.64-13.02,23.96,18.82-1.21,27.88-5.51,33.87-10.57,13.9,6.77,29.51,10.57,46.01,10.57,58.11,0,105.22-47.11,105.22-105.22s-47.11-105.22-105.22-105.22Z"/>
  <path class="cls-1" d="M95.73,140.54l18.65,20.7s-6.83-16.45-14.93-24.17c-2.33-2.22-5.92,1.13-3.73,3.47Z"/>
  <path class="cls-1" d="M80.91,160.73l31,6.22s-17.52-9.74-30.09-11.37c-3.62-.47-4.49,4.5-.91,5.15Z"/>
  <path class="cls-1" d="M78.27,178.04l28.04-5.9s-15.84,9.23-27.22,10.78c-3.27.45-4.06-4.27-.82-4.89Z"/>
</svg>